<svg width="25" height="25" viewBox="0 0 25 25" fill="none" xmlns="http://www.w3.org/2000/svg">
<path d="M23.8281 17.3503V3.44238C23.8281 2.62119 23.16 1.95312 22.3389 1.95312H18.7988V1.46484C18.7988 0.657129 18.1417 0 17.334 0C16.5263 0 15.8691 0.657129 15.8691 1.46484V1.95312H7.95898V1.46484C7.95898 0.657129 7.30186 0 6.49414 0C5.68643 0 5.0293 0.657129 5.0293 1.46484V1.95312H1.48926C0.668115 1.95312 0 2.62119 0 3.44238V21.5576C0 22.3788 0.668115 23.0469 1.48926 23.0469H8.14458C8.41421 23.0469 8.63286 22.8283 8.63286 22.5586C8.63286 22.2889 8.41421 22.0703 8.14458 22.0703H1.48926C1.20654 22.0703 0.976562 21.8403 0.976562 21.5576V3.44238C0.976562 3.15967 1.20654 2.92969 1.48926 2.92969H5.0293V3.41797C5.0293 4.22568 5.68643 4.88281 6.49414 4.88281C7.30186 4.88281 7.95898 4.22568 7.95898 3.41797V2.92969H15.8691V3.41797C15.8691 4.22568 16.5263 4.88281 17.334 4.88281C18.1417 4.88281 18.7988 4.22568 18.7988 3.41797V2.92969H22.3389C22.6216 2.92969 22.8516 3.15967 22.8516 3.44238V5.85938H4.39453C4.1249 5.85938 3.90625 6.07798 3.90625 6.34766C3.90625 6.61733 4.1249 6.83594 4.39453 6.83594H22.8516V16.5252C22.4358 16.263 21.9754 16.0658 21.4844 15.9476V8.69141C21.4844 8.42173 21.2657 8.20312 20.9961 8.20312H2.83203C2.5624 8.20312 2.34375 8.42173 2.34375 8.69141V20.2148C2.34375 20.4845 2.5624 20.7031 2.83203 20.7031H15.8299C15.8603 21.1824 15.9643 21.6418 16.1312 22.0703H12.0508C11.7812 22.0703 11.5625 22.2889 11.5625 22.5586C11.5625 22.8283 11.7812 23.0469 12.0508 23.0469H16.6554C17.4868 24.2272 18.8599 25 20.4102 25C22.941 25 25 22.941 25 20.4102C25 19.2356 24.5563 18.163 23.8281 17.3503ZM6.98242 3.41797C6.98242 3.68721 6.76338 3.90625 6.49414 3.90625C6.2249 3.90625 6.00586 3.68721 6.00586 3.41797V1.46484C6.00586 1.19561 6.2249 0.976562 6.49414 0.976562C6.76338 0.976562 6.98242 1.19561 6.98242 1.46484V3.41797ZM17.8223 3.41797C17.8223 3.68721 17.6032 3.90625 17.334 3.90625C17.0647 3.90625 16.8457 3.68721 16.8457 3.41797V1.46484C16.8457 1.19561 17.0647 0.976562 17.334 0.976562C17.6032 0.976562 17.8223 1.19561 17.8223 1.46484V3.41797ZM20.4102 15.8203C20.1832 15.8203 19.96 15.8372 19.7417 15.8691H17.8516V13.0371H20.5078V15.8215C20.4753 15.8208 20.4428 15.8203 20.4102 15.8203ZM15.8712 19.7266H14.2188V16.8457H16.875V17.486C16.3543 18.1144 15.9977 18.8834 15.8712 19.7266ZM3.32031 13.0371H5.97656V15.8691H3.32031V13.0371ZM6.95312 13.0371H9.60938V15.8691H6.95312V13.0371ZM14.2188 13.0371H16.875V15.8691H14.2188V13.0371ZM13.2422 15.8691H10.5859V13.0371H13.2422V15.8691ZM14.2188 12.0605V9.17969H16.875V12.0605H14.2188ZM13.2422 12.0605H10.5859V9.17969H13.2422V12.0605ZM9.60938 12.0605H6.95312V9.17969H9.60938V12.0605ZM9.60938 16.8457V19.7266H6.95312V16.8457H9.60938ZM10.5859 16.8457H13.2422V19.7266H10.5859V16.8457ZM20.5078 12.0605H17.8516V9.17969H20.5078V12.0605ZM5.97656 9.17969V12.0605H3.32031V9.17969H5.97656ZM3.32031 16.8457H5.97656V19.7266H3.32031V16.8457ZM20.4102 24.0234C18.4178 24.0234 16.7969 22.4025 16.7969 20.4102C16.7969 18.4178 18.4178 16.7969 20.4102 16.7969C22.4025 16.7969 24.0234 18.4178 24.0234 20.4102C24.0234 22.4025 22.4025 24.0234 20.4102 24.0234Z" fill="black"/>
<path d="M21.8229 19.2267L20.3127 20.7369L19.6407 20.0649C19.4501 19.8743 19.141 19.8743 18.9501 20.0649C18.7595 20.2556 18.7595 20.5648 18.9501 20.7555L19.9674 21.7727C20.059 21.8642 20.1831 21.9157 20.3126 21.9157C20.4421 21.9157 20.5663 21.8642 20.6579 21.7727L22.5134 19.9172C22.704 19.7265 22.704 19.4174 22.5134 19.2266C22.3227 19.036 22.0136 19.036 21.8229 19.2267Z" fill="black"/>
<path d="M10.0972 22.0703C9.96875 22.0703 9.84277 22.1226 9.75195 22.2134C9.66118 22.3042 9.60889 22.4302 9.60889 22.5586C9.60889 22.687 9.66113 22.813 9.75195 22.9038C9.84277 22.9946 9.96875 23.0469 10.0972 23.0469C10.2256 23.0469 10.3516 22.9946 10.4424 22.9038C10.5332 22.813 10.5854 22.687 10.5854 22.5586C10.5854 22.4302 10.5332 22.3042 10.4424 22.2134C10.3516 22.1226 10.2256 22.0703 10.0972 22.0703Z" fill="black"/>
<path d="M2.78657 6.69287C2.87744 6.60205 2.92969 6.47607 2.92969 6.34766C2.92969 6.21924 2.87744 6.09326 2.78657 6.00244C2.6958 5.91162 2.56982 5.85938 2.44141 5.85938C2.31245 5.85938 2.18701 5.91162 2.09619 6.00244C2.00537 6.09326 1.95312 6.21924 1.95312 6.34766C1.95312 6.47607 2.00532 6.60205 2.09619 6.69287C2.18706 6.78369 2.31245 6.83594 2.44141 6.83594C2.56982 6.83594 2.6958 6.78369 2.78657 6.69287Z" fill="black"/>
</svg>
