<svg width="13" height="13" viewBox="0 0 13 13" fill="none" xmlns="http://www.w3.org/2000/svg">
<g clip-path="url(#clip0)">
<path d="M6.5001 0C3.90404 0 1.79199 2.11204 1.79199 4.70808C1.79199 7.92985 6.00529 12.6596 6.18467 12.8594C6.35317 13.047 6.64734 13.0467 6.81553 12.8594C6.99491 12.6596 11.2082 7.92985 11.2082 4.70808C11.2082 2.11204 9.09614 0 6.5001 0ZM6.5001 11.9267C5.08211 10.2423 2.63984 6.91925 2.63984 4.70813C2.63984 2.57953 4.37153 0.847844 6.5001 0.847844C8.62867 0.847844 10.3604 2.57954 10.3604 4.70811C10.3603 6.91933 7.91845 10.2418 6.5001 11.9267Z" fill="black"/>
<path d="M6.50009 2.33936C5.19395 2.33936 4.13135 3.40198 4.13135 4.70812C4.13135 6.01427 5.19397 7.07689 6.50009 7.07689C7.80621 7.07689 8.86881 6.01427 8.86881 4.70812C8.86881 3.40198 7.80621 2.33936 6.50009 2.33936ZM6.50009 6.22905C5.66144 6.22905 4.97919 5.54677 4.97919 4.70812C4.97919 3.86947 5.66146 3.1872 6.50009 3.1872C7.33872 3.1872 8.02099 3.86947 8.02099 4.70812C8.02099 5.54677 7.33872 6.22905 6.50009 6.22905Z" fill="black"/>
</g>
<defs>
<clipPath id="clip0">
<rect width="13" height="13" fill="white"/>
</clipPath>
</defs>
</svg>
