<svg width="354" height="107" viewBox="0 0 354 107" fill="none" xmlns="http://www.w3.org/2000/svg">
<g clip-path="url(#clip0)">
<path d="M74.4655 7.12276C75.2244 7.11118 75.8303 6.48653 75.8187 5.72756C75.8072 4.9686 75.1825 4.36272 74.4235 4.3743C73.6646 4.38588 73.0587 5.01053 73.0703 5.76949C73.0819 6.52846 73.7065 7.13434 74.4655 7.12276Z" fill="#F1A717"/>
<path d="M89.6872 13.7633C90.4461 13.7517 91.052 13.127 91.0404 12.3681C91.0288 11.6091 90.4042 11.0032 89.6452 11.0148C88.8863 11.0264 88.2804 11.651 88.292 12.41C88.3035 13.169 88.9282 13.7748 89.6872 13.7633Z" fill="#F1A717"/>
<path d="M59.4538 14.2244C60.2127 14.2129 60.8186 13.5882 60.807 12.8292C60.7954 12.0703 60.1708 11.4644 59.4118 11.476C58.6529 11.4876 58.047 12.1122 58.0586 12.8712C58.0701 13.6301 58.6948 14.236 59.4538 14.2244Z" fill="#F1A717"/>
<path d="M62.3787 27.9254L87.1827 27.547L89.68 15.436C89.7354 15.1673 89.7091 14.8882 89.6046 14.6346C89.5 14.381 89.322 14.1644 89.0933 14.0129C88.8647 13.8613 88.5959 13.7816 88.3216 13.7841C88.0472 13.7865 87.7799 13.871 87.5541 14.0267L80.6742 18.766L75.7274 9.23779C75.6097 9.0113 75.4314 8.82204 75.2122 8.69121C74.9931 8.56037 74.7419 8.49314 74.4867 8.49703C74.2315 8.50093 73.9825 8.57579 73.7674 8.71325C73.5524 8.85071 73.3799 9.04532 73.2692 9.2753L68.6153 18.9499L61.594 14.4228C61.3634 14.2741 61.0937 14.1979 60.8195 14.2038C60.5452 14.2097 60.279 14.2976 60.0552 14.456C59.8313 14.6145 59.6599 14.8364 59.5632 15.093C59.4664 15.3497 59.4486 15.6294 59.5122 15.8963L62.3787 27.9254Z" fill="#F1A717"/>
</g>
<path d="M27.0156 24.6757C32.4766 24.6757 36.7188 26.0819 39.7422 28.8944C42.7891 31.7069 44.3125 35.41 44.3125 40.0038C44.3125 44.6444 42.7891 48.3593 39.7422 51.1483C36.7188 53.9374 32.4766 55.3319 27.0156 55.3319H16.1523V70.4491L21.8828 71.4335V75.8632H3.49609V71.4335L9.22656 70.4491V30.1249L3.49609 29.1405V24.6757H9.22656H27.0156ZM16.1523 49.9178H27.0156C30.4844 49.9178 33.0742 48.9921 34.7852 47.1405C36.5195 45.2655 37.3867 42.91 37.3867 40.0741C37.3867 37.2382 36.5195 34.871 34.7852 32.9725C33.0742 31.0741 30.4844 30.1249 27.0156 30.1249H16.1523V49.9178ZM97.0272 50.6561C97.0272 58.1093 94.8827 64.2968 90.5936 69.2186C86.328 74.1405 80.7967 76.6014 73.9998 76.6014C67.3905 76.6014 62.0233 74.1405 57.8983 69.2186C53.7733 64.2968 51.7108 58.1093 51.7108 50.6561V49.9178C51.7108 42.4882 53.7733 36.3007 57.8983 31.3553C62.0233 26.41 67.3905 23.9374 73.9998 23.9374C80.7967 23.9374 86.328 26.41 90.5936 31.3553C94.8827 36.3007 97.0272 42.4882 97.0272 49.9178V50.6561ZM90.1014 49.8475C90.1014 43.8944 88.6717 39.0428 85.8123 35.2928C82.9764 31.5194 79.0389 29.6327 73.9998 29.6327C69.1717 29.6327 65.3983 31.5194 62.6795 35.2928C59.9842 39.0663 58.6366 43.9178 58.6366 49.8475V50.6561C58.6366 56.6561 59.9842 61.5428 62.6795 65.3163C65.3983 69.0663 69.1717 70.9413 73.9998 70.9413C79.1092 70.9413 83.0702 69.0663 85.8827 65.3163C88.6952 61.5663 90.1014 56.6796 90.1014 50.6561V49.8475ZM104.882 69.7811C105.281 69.8983 105.632 69.9921 105.937 70.0624C106.265 70.1093 106.629 70.1327 107.027 70.1327C107.988 70.1327 108.82 69.8514 109.523 69.2889C110.25 68.7264 110.941 67.9178 111.597 66.8632L118.84 54.3475C115.183 53.1522 112.394 51.3593 110.472 48.9686C108.55 46.5546 107.59 43.5897 107.59 40.0741C107.59 35.1991 109.195 31.4139 112.406 28.7186C115.617 26.0233 120.047 24.6757 125.695 24.6757H147.843V29.1405L142.113 30.1249V70.4491L147.843 71.4335V75.8632H135.152V55.8241H124.781L117.082 69.9921C115.933 71.9843 114.621 73.5077 113.144 74.5624C111.668 75.6171 110.05 76.1444 108.293 76.1444C107.308 76.1444 106.488 76.0272 105.832 75.7928C105.199 75.5585 104.554 75.1835 103.898 74.6678L104.882 69.7811ZM114.515 40.0038C114.515 43.0741 115.476 45.5702 117.398 47.4921C119.32 49.3905 122.074 50.3397 125.66 50.3397H135.152V30.1249H125.695C122.039 30.1249 119.261 31.0038 117.363 32.7616C115.465 34.5194 114.515 36.9335 114.515 40.0038ZM129.422 75.8632V71.4335L135.152 70.4491V75.8632H129.422ZM171.626 30.1249L170.782 48.7928C170.337 58.4022 168.989 65.3163 166.739 69.535C164.513 73.7538 160.645 75.8632 155.138 75.8632H153.31V70.4491H154.716C157.88 70.4491 160.106 68.8436 161.395 65.6327C162.708 62.3983 163.54 56.785 163.892 48.7928L164.735 30.0897L159.251 29.1405V24.6757H201.966V29.1405L196.235 30.1249V70.4491L201.966 71.4335V75.8632H183.579V71.4335L189.31 70.4491V30.1249H171.626Z" fill="black"/>
<path d="M244.416 35.996H238.475L237.947 30.1249H220.299V45.6288H232.92C238.405 45.6288 242.647 46.9764 245.647 49.6718C248.67 52.3671 250.182 56.0116 250.182 60.6053C250.182 65.2225 248.67 68.9257 245.647 71.7147C242.623 74.4803 238.381 75.8632 232.92 75.8632H207.291V71.4335L213.022 70.4491V30.1249L207.291 29.1405V24.6757H244.416V35.996ZM220.299 51.078V70.4491H232.92C236.389 70.4491 238.979 69.5116 240.69 67.6366C242.401 65.7616 243.256 63.3944 243.256 60.535C243.256 57.7694 242.401 55.5077 240.69 53.7499C238.979 51.9686 236.389 51.078 232.92 51.078H220.299ZM298.785 29.1405L294.777 29.7382L278.992 67.4608C277.609 70.5311 276.097 72.828 274.457 74.3514C272.839 75.8514 270.25 76.6014 266.687 76.6014C266.101 76.6014 265.41 76.5663 264.613 76.496C263.839 76.4257 263.347 76.3553 263.136 76.285L263.347 71.0468C263.582 71.0936 264.085 71.1288 264.859 71.1522C265.632 71.1757 266.218 71.1874 266.617 71.1874C268.281 71.1874 269.464 70.7772 270.167 69.9569C270.894 69.1132 271.714 67.7421 272.628 65.8436L274 62.9257L259.128 29.7733L254.98 29.1405V24.6757H271.046V29.1405L266.757 29.8085L274.527 48.6171L277.093 55.2264H277.304L286.902 29.8436L282.437 29.1405V24.6757H298.785V29.1405ZM350.13 24.6757V29.1405L344.399 30.1249V70.4491H351.43L350.727 88.4139H344.505V75.8632H307.591V88.4843H301.684L300.665 70.4491H305.059C306.841 68.3866 308.481 65.3866 309.981 61.4491C311.481 57.5116 312.302 52.1561 312.442 45.3827L313.286 30.0897L307.872 29.1405V24.6757H344.399H350.13ZM319.438 45.3827C319.227 50.9608 318.524 55.871 317.329 60.1132C316.134 64.3553 314.598 67.8007 312.723 70.4491H337.473V30.1249H320.247L319.438 45.3827Z" fill="#F1A717"/>
<path d="M14.29 91.455H8.12012V95.287H11.3018C12.6377 95.3046 13.6807 95.6473 14.4307 96.3153C15.1807 96.9833 15.5557 97.8915 15.5557 99.0399C15.5557 100.194 15.1777 101.114 14.4219 101.8C13.666 102.485 12.6348 102.84 11.3281 102.863H6.42383V90.0663H14.29V91.455ZM8.12012 96.6757V101.483H11.2051C12.043 101.483 12.6934 101.261 13.1562 100.815C13.625 100.37 13.8594 99.7723 13.8594 99.0223C13.8594 98.3016 13.6338 97.7333 13.1826 97.3173C12.7373 96.9012 12.1016 96.6874 11.2754 96.6757H8.12012ZM22.0771 97.493L25.0215 90.0663H26.9814L22.4551 100.727C22.1504 101.407 21.8662 101.891 21.6025 102.178C21.3389 102.459 21.0283 102.676 20.6709 102.828C20.3193 102.974 19.877 103.048 19.3438 103.048C18.8809 103.048 18.585 103.021 18.4561 102.969L18.5088 101.633L19.3086 101.668C19.9238 101.668 20.3809 101.372 20.6797 100.78L20.8994 100.323L21.2334 99.5409L16.874 90.0663H18.7637L22.0771 97.493ZM39.7959 106.001H38.1172V102.863H28.9326V106.01H27.2451L27.2363 101.483H28.2822C28.833 100.862 29.2695 100.03 29.5918 98.9872C29.9199 97.9384 30.125 96.7899 30.207 95.5419L30.4883 90.0663H38.1436V101.483H39.8135L39.7959 106.001ZM30.207 101.483H36.4473V91.455H32.1143L31.9297 95.2167C31.8535 96.6874 31.6572 97.9413 31.3408 98.9784C31.0303 100.016 30.6523 100.85 30.207 101.483ZM43.6279 102.863H41.9404V90.0663H43.6279V102.863ZM46.7217 102.863V90.0663H50.9053C52.2939 90.0663 53.3369 90.3534 54.0342 90.9276C54.7373 91.5018 55.0889 92.3514 55.0889 93.4764C55.0889 94.0741 54.9189 94.6044 54.5791 95.0673C54.2393 95.5243 53.7764 95.8788 53.1904 96.1307C53.8818 96.3241 54.4268 96.6932 54.8252 97.2382C55.2295 97.7772 55.4316 98.4218 55.4316 99.1718C55.4316 100.32 55.0596 101.223 54.3154 101.879C53.5713 102.535 52.5195 102.863 51.1602 102.863H46.7217ZM48.4092 96.8778V101.483H51.1953C51.9805 101.483 52.5986 101.281 53.0498 100.877C53.5068 100.467 53.7354 99.9042 53.7354 99.1893C53.7354 97.6483 52.8975 96.8778 51.2217 96.8778H48.4092ZM48.4092 95.5243H50.958C51.6963 95.5243 52.2852 95.3397 52.7246 94.9706C53.1699 94.6014 53.3926 94.1005 53.3926 93.4677C53.3926 92.7645 53.1875 92.2548 52.7773 91.9384C52.3672 91.6161 51.7432 91.455 50.9053 91.455H48.4092V95.5243ZM65.1699 96.9481H59.624V101.483H66.0664V102.863H57.9365V90.0663H65.9785V91.455H59.624V95.5682H65.1699V96.9481ZM77.8438 90.0663V102.863H76.1562V91.455H71.5684L71.3398 96.5262C71.252 98.2255 71.0762 99.5028 70.8125 100.358C70.5547 101.214 70.1738 101.844 69.6699 102.248C69.166 102.646 68.4922 102.851 67.6484 102.863H67.0947V101.483L67.4463 101.466C67.9912 101.425 68.4102 101.249 68.7031 100.938C68.9961 100.622 69.2188 100.121 69.3711 99.4354C69.5234 98.7499 69.6318 97.6952 69.6963 96.2714L69.96 90.0663H77.8438ZM82.5459 95.287H85.7275C87.0635 95.3046 88.1064 95.6473 88.8564 96.3153C89.6064 96.9833 89.9814 97.8915 89.9814 99.0399C89.9814 100.194 89.6035 101.114 88.8477 101.8C88.0918 102.485 87.0605 102.84 85.7539 102.863H80.8584V90.0663H82.5459V95.287ZM82.5459 96.6757V101.483H85.6309C86.4688 101.483 87.1191 101.261 87.582 100.815C88.0508 100.37 88.2852 99.7723 88.2852 99.0223C88.2852 98.3016 88.0596 97.7333 87.6084 97.3173C87.1631 96.9012 86.5273 96.6874 85.7012 96.6757H82.5459ZM102.049 102.863H100.353V96.9481H93.9014V102.863H92.2139V90.0663H93.9014V95.5682H100.353V90.0663H102.049V102.863ZM106.856 102.863H105.169V90.0663H106.856V102.863ZM116.595 90.0663L120.778 100.508L124.962 90.0663H127.15V102.863H125.463V97.8798L125.621 92.5009L121.42 102.863H120.128L115.936 92.5272L116.103 97.8798V102.863H114.415V90.0663H116.595ZM137.354 99.5233H131.993L130.789 102.863H129.049L133.936 90.0663H135.412L140.308 102.863H138.576L137.354 99.5233ZM132.503 98.1346H136.854L134.674 92.1493L132.503 98.1346ZM149.729 91.455H145.616V102.863H143.938V91.455H139.833V90.0663H149.729V91.455ZM158.861 96.9481H153.315V101.483H159.758V102.863H151.628V90.0663H159.67V91.455H153.315V95.5682H158.861V96.9481ZM163.546 97.8534V102.863H161.858V90.0663H166.578C167.979 90.0663 169.074 90.4237 169.865 91.1385C170.662 91.8534 171.061 92.7997 171.061 93.9774C171.061 95.2196 170.671 96.1776 169.892 96.8514C169.118 97.5194 168.008 97.8534 166.561 97.8534H163.546ZM163.546 96.4735H166.578C167.48 96.4735 168.172 96.2626 168.652 95.8407C169.133 95.413 169.373 94.7977 169.373 93.995C169.373 93.2333 169.133 92.6239 168.652 92.1669C168.172 91.7098 167.513 91.4725 166.675 91.455H163.546V96.4735ZM175.024 102.863H173.337V90.0663H175.024V102.863ZM185.343 99.5233H179.981L178.777 102.863H177.037L181.924 90.0663H183.4L188.296 102.863H186.564L185.343 99.5233ZM180.491 98.1346H184.842L182.662 92.1493L180.491 98.1346ZM199.854 90.0663V102.863H198.166V91.455H193.578L193.35 96.5262C193.262 98.2255 193.086 99.5028 192.822 100.358C192.564 101.214 192.184 101.844 191.68 102.248C191.176 102.646 190.502 102.851 189.658 102.863H189.104V101.483L189.456 101.466C190.001 101.425 190.42 101.249 190.713 100.938C191.006 100.622 191.229 100.121 191.381 99.4354C191.533 98.7499 191.642 97.6952 191.706 96.2714L191.97 90.0663H199.854ZM210.989 90.0663H212.677V102.863H210.989V93.0018L204.688 102.863H202.991V90.0663H204.688V99.9276L210.989 90.0663Z" fill="black"/>
<defs>
<clipPath id="clip0">
<rect x="57.8701" y="0.503174" width="32.9854" height="32.9854" transform="rotate(-0.874077 57.8701 0.503174)" fill="white"/>
</clipPath>
</defs>
</svg>
