<svg width="354" height="107" viewBox="0 0 354 107" fill="none" xmlns="http://www.w3.org/2000/svg">
<g clip-path="url(#clip0)">
<path d="M74.4655 7.12276C75.2244 7.11118 75.8303 6.48653 75.8187 5.72756C75.8072 4.9686 75.1825 4.36272 74.4235 4.3743C73.6646 4.38588 73.0587 5.01053 73.0703 5.76949C73.0819 6.52846 73.7065 7.13434 74.4655 7.12276Z" fill="#F1A717"/>
<path d="M89.6872 13.7633C90.4461 13.7517 91.052 13.127 91.0404 12.3681C91.0288 11.6091 90.4042 11.0032 89.6452 11.0148C88.8863 11.0264 88.2804 11.651 88.292 12.41C88.3035 13.169 88.9282 13.7748 89.6872 13.7633Z" fill="#F1A717"/>
<path d="M59.4538 14.2244C60.2127 14.2129 60.8186 13.5882 60.807 12.8292C60.7954 12.0703 60.1708 11.4644 59.4118 11.476C58.6529 11.4876 58.047 12.1122 58.0586 12.8712C58.0701 13.6301 58.6948 14.236 59.4538 14.2244Z" fill="#F1A717"/>
<path d="M62.3787 27.9254L87.1827 27.547L89.68 15.436C89.7354 15.1673 89.7091 14.8882 89.6046 14.6346C89.5 14.381 89.322 14.1644 89.0933 14.0129C88.8647 13.8613 88.5959 13.7816 88.3216 13.7841C88.0472 13.7865 87.7799 13.871 87.5541 14.0267L80.6742 18.766L75.7274 9.23779C75.6097 9.0113 75.4314 8.82204 75.2122 8.69121C74.9931 8.56037 74.7419 8.49314 74.4867 8.49703C74.2315 8.50093 73.9825 8.57579 73.7674 8.71325C73.5524 8.85071 73.3799 9.04532 73.2692 9.2753L68.6153 18.9499L61.594 14.4228C61.3634 14.2741 61.0937 14.1979 60.8195 14.2038C60.5452 14.2097 60.279 14.2976 60.0552 14.456C59.8313 14.6145 59.6599 14.8364 59.5632 15.093C59.4664 15.3497 59.4486 15.6294 59.5122 15.8963L62.3787 27.9254Z" fill="#F1A717"/>
</g>
<path d="M27.0156 24.6757C32.4766 24.6757 36.7188 26.0819 39.7422 28.8944C42.7891 31.7069 44.3125 35.41 44.3125 40.0038C44.3125 44.6444 42.7891 48.3593 39.7422 51.1483C36.7188 53.9374 32.4766 55.3319 27.0156 55.3319H16.1523V70.4491L21.8828 71.4335V75.8632H3.49609V71.4335L9.22656 70.4491V30.1249L3.49609 29.1405V24.6757H9.22656H27.0156ZM16.1523 49.9178H27.0156C30.4844 49.9178 33.0742 48.9921 34.7852 47.1405C36.5195 45.2655 37.3867 42.91 37.3867 40.0741C37.3867 37.2382 36.5195 34.871 34.7852 32.9725C33.0742 31.0741 30.4844 30.1249 27.0156 30.1249H16.1523V49.9178ZM97.0272 50.6561C97.0272 58.1093 94.8827 64.2968 90.5936 69.2186C86.328 74.1405 80.7967 76.6014 73.9998 76.6014C67.3905 76.6014 62.0233 74.1405 57.8983 69.2186C53.7733 64.2968 51.7108 58.1093 51.7108 50.6561V49.9178C51.7108 42.4882 53.7733 36.3007 57.8983 31.3553C62.0233 26.41 67.3905 23.9374 73.9998 23.9374C80.7967 23.9374 86.328 26.41 90.5936 31.3553C94.8827 36.3007 97.0272 42.4882 97.0272 49.9178V50.6561ZM90.1014 49.8475C90.1014 43.8944 88.6717 39.0428 85.8123 35.2928C82.9764 31.5194 79.0389 29.6327 73.9998 29.6327C69.1717 29.6327 65.3983 31.5194 62.6795 35.2928C59.9842 39.0663 58.6366 43.9178 58.6366 49.8475V50.6561C58.6366 56.6561 59.9842 61.5428 62.6795 65.3163C65.3983 69.0663 69.1717 70.9413 73.9998 70.9413C79.1092 70.9413 83.0702 69.0663 85.8827 65.3163C88.6952 61.5663 90.1014 56.6796 90.1014 50.6561V49.8475ZM104.882 69.7811C105.281 69.8983 105.632 69.9921 105.937 70.0624C106.265 70.1093 106.629 70.1327 107.027 70.1327C107.988 70.1327 108.82 69.8514 109.523 69.2889C110.25 68.7264 110.941 67.9178 111.597 66.8632L118.84 54.3475C115.183 53.1522 112.394 51.3593 110.472 48.9686C108.55 46.5546 107.59 43.5897 107.59 40.0741C107.59 35.1991 109.195 31.4139 112.406 28.7186C115.617 26.0233 120.047 24.6757 125.695 24.6757H147.843V29.1405L142.113 30.1249V70.4491L147.843 71.4335V75.8632H135.152V55.8241H124.781L117.082 69.9921C115.933 71.9843 114.621 73.5077 113.144 74.5624C111.668 75.6171 110.05 76.1444 108.293 76.1444C107.308 76.1444 106.488 76.0272 105.832 75.7928C105.199 75.5585 104.554 75.1835 103.898 74.6678L104.882 69.7811ZM114.515 40.0038C114.515 43.0741 115.476 45.5702 117.398 47.4921C119.32 49.3905 122.074 50.3397 125.66 50.3397H135.152V30.1249H125.695C122.039 30.1249 119.261 31.0038 117.363 32.7616C115.465 34.5194 114.515 36.9335 114.515 40.0038ZM129.422 75.8632V71.4335L135.152 70.4491V75.8632H129.422ZM171.626 30.1249L170.782 48.7928C170.337 58.4022 168.989 65.3163 166.739 69.535C164.513 73.7538 160.645 75.8632 155.138 75.8632H153.31V70.4491H154.716C157.88 70.4491 160.106 68.8436 161.395 65.6327C162.708 62.3983 163.54 56.785 163.892 48.7928L164.735 30.0897L159.251 29.1405V24.6757H201.966V29.1405L196.235 30.1249V70.4491L201.966 71.4335V75.8632H183.579V71.4335L189.31 70.4491V30.1249H171.626Z" fill="black"/>
<path d="M244.416 35.996H238.475L237.947 30.1249H220.299V45.6288H232.92C238.405 45.6288 242.647 46.9764 245.647 49.6718C248.67 52.3671 250.182 56.0116 250.182 60.6053C250.182 65.2225 248.67 68.9257 245.647 71.7147C242.623 74.4803 238.381 75.8632 232.92 75.8632H207.291V71.4335L213.022 70.4491V30.1249L207.291 29.1405V24.6757H244.416V35.996ZM220.299 51.078V70.4491H232.92C236.389 70.4491 238.979 69.5116 240.69 67.6366C242.401 65.7616 243.256 63.3944 243.256 60.535C243.256 57.7694 242.401 55.5077 240.69 53.7499C238.979 51.9686 236.389 51.078 232.92 51.078H220.299ZM298.785 29.1405L294.777 29.7382L278.992 67.4608C277.609 70.5311 276.097 72.828 274.457 74.3514C272.839 75.8514 270.25 76.6014 266.687 76.6014C266.101 76.6014 265.41 76.5663 264.613 76.496C263.839 76.4257 263.347 76.3553 263.136 76.285L263.347 71.0468C263.582 71.0936 264.085 71.1288 264.859 71.1522C265.632 71.1757 266.218 71.1874 266.617 71.1874C268.281 71.1874 269.464 70.7772 270.167 69.9569C270.894 69.1132 271.714 67.7421 272.628 65.8436L274 62.9257L259.128 29.7733L254.98 29.1405V24.6757H271.046V29.1405L266.757 29.8085L274.527 48.6171L277.093 55.2264H277.304L286.902 29.8436L282.437 29.1405V24.6757H298.785V29.1405ZM350.13 24.6757V29.1405L344.399 30.1249V70.4491H351.43L350.727 88.4139H344.505V75.8632H307.591V88.4843H301.684L300.665 70.4491H305.059C306.841 68.3866 308.481 65.3866 309.981 61.4491C311.481 57.5116 312.302 52.1561 312.442 45.3827L313.286 30.0897L307.872 29.1405V24.6757H344.399H350.13ZM319.438 45.3827C319.227 50.9608 318.524 55.871 317.329 60.1132C316.134 64.3553 314.598 67.8007 312.723 70.4491H337.473V30.1249H320.247L319.438 45.3827Z" fill="#F1A717"/>
<path d="M15.8984 98.8026C15.7402 100.156 15.2393 101.202 14.3955 101.94C13.5576 102.673 12.4414 103.039 11.0469 103.039C9.53516 103.039 8.32227 102.497 7.4082 101.413C6.5 100.329 6.0459 98.8788 6.0459 97.0624V95.8319C6.0459 94.6425 6.25684 93.5966 6.67871 92.6942C7.10645 91.7919 7.70996 91.1005 8.48926 90.62C9.26855 90.1337 10.1709 89.8905 11.1963 89.8905C12.5557 89.8905 13.6455 90.2714 14.4658 91.0331C15.2861 91.7889 15.7637 92.8378 15.8984 94.1796H14.2021C14.0557 93.16 13.7363 92.4218 13.2441 91.9647C12.7578 91.5077 12.0752 91.2792 11.1963 91.2792C10.1182 91.2792 9.27148 91.6776 8.65625 92.4745C8.04688 93.2714 7.74219 94.4052 7.74219 95.8759V97.1151C7.74219 98.5038 8.03223 99.6083 8.6123 100.429C9.19238 101.249 10.0039 101.659 11.0469 101.659C11.9844 101.659 12.7021 101.448 13.2002 101.026C13.7041 100.599 14.0381 99.8573 14.2021 98.8026H15.8984ZM26.7881 91.455H22.6748V102.863H20.9961V91.455H16.8916V90.0663H26.7881V91.455ZM30.374 97.8534V102.863H28.6865V90.0663H33.4062C34.8066 90.0663 35.9023 90.4237 36.6934 91.1385C37.4902 91.8534 37.8887 92.7997 37.8887 93.9774C37.8887 95.2196 37.499 96.1776 36.7197 96.8514C35.9463 97.5194 34.8359 97.8534 33.3887 97.8534H30.374ZM30.374 96.4735H33.4062C34.3086 96.4735 35 96.2626 35.4805 95.8407C35.9609 95.413 36.2012 94.7977 36.2012 93.995C36.2012 93.2333 35.9609 92.6239 35.4805 92.1669C35 91.7098 34.3408 91.4725 33.5029 91.455H30.374V96.4735ZM49.8857 96.8778C49.8857 98.1317 49.6748 99.2274 49.2529 100.165C48.8311 101.097 48.2334 101.808 47.46 102.301C46.6865 102.793 45.7842 103.039 44.7529 103.039C43.7451 103.039 42.8516 102.793 42.0723 102.301C41.293 101.803 40.6865 101.097 40.2529 100.182C39.8252 99.2626 39.6055 98.1991 39.5938 96.9921V96.0692C39.5938 94.8387 39.8076 93.7518 40.2354 92.8085C40.6631 91.8651 41.2666 91.1444 42.0459 90.6464C42.8311 90.1425 43.7275 89.8905 44.7354 89.8905C45.7607 89.8905 46.6631 90.1395 47.4424 90.6376C48.2275 91.1298 48.8311 91.8475 49.2529 92.7909C49.6748 93.7284 49.8857 94.8212 49.8857 96.0692V96.8778ZM48.207 96.0516C48.207 94.5341 47.9023 93.371 47.293 92.5624C46.6836 91.7479 45.8311 91.3407 44.7354 91.3407C43.6689 91.3407 42.8281 91.7479 42.2129 92.5624C41.6035 93.371 41.29 94.496 41.2725 95.9374V96.8778C41.2725 98.3485 41.5801 99.5057 42.1953 100.349C42.8164 101.187 43.6689 101.606 44.7529 101.606C45.8428 101.606 46.6865 101.211 47.2842 100.42C47.8818 99.6229 48.1895 98.4833 48.207 97.0009V96.0516ZM60.4854 90.0663H62.1729V102.863H60.4854V93.0018L54.1836 102.863H52.4873V90.0663H54.1836V99.9276L60.4854 90.0663ZM73.8271 91.455H69.7139V102.863H68.0352V91.455H63.9307V90.0663H73.8271V91.455ZM82.959 96.9481H77.4131V101.483H83.8555V102.863H75.7256V90.0663H83.7676V91.455H77.4131V95.5682H82.959V96.9481ZM95.6328 90.0663V102.863H93.9453V91.455H89.3574L89.1289 96.5262C89.041 98.2255 88.8652 99.5028 88.6016 100.358C88.3438 101.214 87.9629 101.844 87.459 102.248C86.9551 102.646 86.2812 102.851 85.4375 102.863H84.8838V101.483L85.2354 101.466C85.7803 101.425 86.1992 101.249 86.4922 100.938C86.7852 100.622 87.0078 100.121 87.1602 99.4354C87.3125 98.7499 87.4209 97.6952 87.4854 96.2714L87.749 90.0663H95.6328ZM100.335 95.287H103.517C104.853 95.3046 105.896 95.6473 106.646 96.3153C107.396 96.9833 107.771 97.8915 107.771 99.0399C107.771 100.194 107.393 101.114 106.637 101.8C105.881 102.485 104.85 102.84 103.543 102.863H98.6475V90.0663H100.335V95.287ZM100.335 96.6757V101.483H103.42C104.258 101.483 104.908 101.261 105.371 100.815C105.84 100.37 106.074 99.7723 106.074 99.0223C106.074 98.3016 105.849 97.7333 105.397 97.3173C104.952 96.9012 104.316 96.6874 103.49 96.6757H100.335ZM119.838 102.863H118.142V96.9481H111.69V102.863H110.003V90.0663H111.69V95.5682H118.142V90.0663H119.838V102.863ZM124.602 95.287H127.783C129.119 95.3046 130.162 95.6473 130.912 96.3153C131.662 96.9833 132.037 97.8915 132.037 99.0399C132.037 100.194 131.659 101.114 130.903 101.8C130.147 102.485 129.116 102.84 127.81 102.863H122.914V90.0663H124.602V95.287ZM124.602 96.6757V101.483H127.687C128.524 101.483 129.175 101.261 129.638 100.815C130.106 100.37 130.341 99.7723 130.341 99.0223C130.341 98.3016 130.115 97.7333 129.664 97.3173C129.219 96.9012 128.583 96.6874 127.757 96.6757H124.602ZM135.271 102.863H133.584V90.0663H135.271V102.863ZM145.643 96.9481H140.097V101.483H146.539V102.863H138.409V90.0663H146.451V91.455H140.097V95.5682H145.643V96.9481ZM155.284 90.0663L159.468 100.508L163.651 90.0663H165.84V102.863H164.152V97.8798L164.311 92.5009L160.109 102.863H158.817L154.625 92.5272L154.792 97.8798V102.863H153.104V90.0663H155.284ZM176.044 99.5233H170.683L169.479 102.863H167.738L172.625 90.0663H174.102L178.997 102.863H177.266L176.044 99.5233ZM171.192 98.1346H175.543L173.363 92.1493L171.192 98.1346ZM188.419 91.455H184.306V102.863H182.627V91.455H178.522V90.0663H188.419V91.455ZM197.551 96.9481H192.005V101.483H198.447V102.863H190.317V90.0663H198.359V91.455H192.005V95.5682H197.551V96.9481ZM202.235 97.8534V102.863H200.548V90.0663H205.268C206.668 90.0663 207.764 90.4237 208.555 91.1385C209.352 91.8534 209.75 92.7997 209.75 93.9774C209.75 95.2196 209.36 96.1776 208.581 96.8514C207.808 97.5194 206.697 97.8534 205.25 97.8534H202.235ZM202.235 96.4735H205.268C206.17 96.4735 206.861 96.2626 207.342 95.8407C207.822 95.413 208.062 94.7977 208.062 93.995C208.062 93.2333 207.822 92.6239 207.342 92.1669C206.861 91.7098 206.202 91.4725 205.364 91.455H202.235V96.4735ZM219.972 90.0663H221.659V102.863H219.972V93.0018L213.67 102.863H211.974V90.0663H213.67V99.9276L219.972 90.0663ZM231.96 99.5233H226.599L225.395 102.863H223.654L228.541 90.0663H230.018L234.913 102.863H233.182L231.96 99.5233ZM227.108 98.1346H231.459L229.279 92.1493L227.108 98.1346ZM246.471 90.0663V102.863H244.783V91.455H240.195L239.967 96.5262C239.879 98.2255 239.703 99.5028 239.439 100.358C239.182 101.214 238.801 101.844 238.297 102.248C237.793 102.646 237.119 102.851 236.275 102.863H235.722V101.483L236.073 101.466C236.618 101.425 237.037 101.249 237.33 100.938C237.623 100.622 237.846 100.121 237.998 99.4354C238.15 98.7499 238.259 97.6952 238.323 96.2714L238.587 90.0663H246.471ZM251.305 95.287H254.486C255.822 95.3046 256.865 95.6473 257.615 96.3153C258.365 96.9833 258.74 97.8915 258.74 99.0399C258.74 100.194 258.362 101.114 257.606 101.8C256.851 102.485 255.819 102.84 254.513 102.863H249.617V90.0663H251.305V95.287ZM251.305 96.6757V101.483H254.39C255.228 101.483 255.878 101.261 256.341 100.815C256.81 100.37 257.044 99.7723 257.044 99.0223C257.044 98.3016 256.818 97.7333 256.367 97.3173C255.922 96.9012 255.286 96.6874 254.46 96.6757H251.305ZM261.975 102.863H260.287V90.0663H261.975V102.863Z" fill="black"/>
<defs>
<clipPath id="clip0">
<rect x="57.8701" y="0.503174" width="32.9854" height="32.9854" transform="rotate(-0.874077 57.8701 0.503174)" fill="white"/>
</clipPath>
</defs>
</svg>
